<?xml version="1.0" standalone="no"?>
<!DOCTYPE svg PUBLIC "-//W3C//DTD SVG 20010904//EN"
 "http://www.w3.org/TR/2001/REC-SVG-20010904/DTD/svg10.dtd">
<svg version="1.0" xmlns="http://www.w3.org/2000/svg"
 width="1200.000000pt" height="1200.000000pt" viewBox="0 0 1200.000000 1200.000000"
 preserveAspectRatio="xMidYMid meet">
<metadata>
Created by potrace 1.11, written by Peter Selinger 2001-2013
</metadata>
<g transform="translate(0.000000,1200.000000) scale(0.100000,-0.100000)"
fill="#000000" stroke="none">
<path d="M3811 9209 c-34 -14 -50 -39 -51 -79 0 -32 39 -73 668 -703 367 -368
679 -675 694 -683 39 -20 56 -18 89 15 20 21 29 39 29 62 0 30 -57 90 -667
702 -573 573 -709 702 -735 696 -2 0 -14 -5 -27 -10z"/>
<path d="M8125 9206 c-16 -8 -330 -315 -697 -683 -635 -636 -668 -671 -668
-705 0 -28 7 -42 31 -62 35 -30 49 -32 87 -12 15 8 327 315 695 683 630 632
667 671 667 704 0 33 -29 79 -50 79 -4 0 -14 2 -22 5 -7 2 -26 -2 -43 -9z"/>
<path d="M5755 7468 c-70 -40 -101 -134 -70 -210 4 -10 2 -16 -7 -15 -82 3
-125 -34 -189 -167 -58 -118 -62 -158 -23 -281 l26 -82 -61 -121 c-34 -67 -61
-124 -61 -127 0 -3 24 -5 53 -4 l52 0 59 124 60 124 -33 105 c-38 120 -38 120
30 248 30 58 47 80 65 84 14 4 28 4 31 0 4 -3 -18 -64 -49 -135 l-55 -128 63
-88 c64 -90 62 -84 105 -277 l12 -58 49 0 c26 0 48 2 48 5 0 3 -13 66 -30 140
-16 74 -30 136 -30 138 0 2 -24 36 -54 76 l-55 73 35 81 c19 45 37 83 38 84 2
2 11 -17 21 -42 29 -78 43 -85 162 -85 l103 0 0 45 0 45 -81 0 -80 0 -30 65
c-34 76 -34 75 -12 75 9 0 36 9 60 21 113 55 124 205 20 283 -41 30 -122 32
-172 4z m105 -78 c19 0 40 -33 40 -62 0 -41 -25 -68 -63 -68 -67 0 -93 78 -40
120 15 11 33 18 41 15 7 -3 17 -5 22 -5z"/>
<path d="M4150 7458 c-26 -7 -94 -69 -267 -241 -128 -127 -239 -245 -248 -263
-19 -40 -19 -97 -1 -132 22 -41 467 -479 499 -491 41 -16 73 -13 115 8 47 25
487 467 501 504 15 39 14 93 -3 125 -8 15 -117 129 -243 254 -187 186 -235
228 -268 237 -22 6 -42 11 -45 10 -3 0 -21 -5 -40 -11z m253 -356 l207 -207
-208 -208 c-114 -114 -211 -207 -215 -207 -4 0 -101 92 -215 205 l-207 204
210 211 c115 115 212 210 215 210 3 0 99 -93 213 -208z"/>
<path d="M7770 7458 c-26 -7 -94 -69 -267 -241 -128 -127 -239 -245 -248 -263
-19 -40 -19 -97 -1 -132 22 -41 467 -479 499 -491 41 -16 73 -13 115 8 47 25
487 467 501 504 15 39 14 93 -3 125 -8 15 -117 129 -243 254 -187 186 -235
228 -268 237 -22 6 -42 11 -45 10 -3 0 -21 -5 -40 -11z m253 -770 c-114 -115
-212 -208 -218 -208 -6 0 -102 92 -215 205 l-205 205 213 212 212 212 210
-209 210 -210 -207 -207z"/>
<path d="M6145 7384 c-67 -35 -95 -79 -95 -152 0 -81 59 -148 138 -159 39 -5
40 -7 28 -27 -7 -11 -21 -50 -31 -86 -10 -36 -22 -70 -27 -77 -5 -6 -40 -30
-79 -53 -38 -22 -69 -43 -69 -45 0 -10 43 -75 49 -75 14 0 174 105 182 120 5
8 15 31 22 49 l13 35 28 -36 27 -36 -54 -76 c-50 -69 -56 -85 -72 -169 -9 -50
-19 -102 -22 -114 -5 -22 -2 -23 45 -23 l50 0 17 94 c16 89 20 100 86 194 l69
100 -65 81 c-36 44 -65 84 -65 89 0 5 9 17 21 28 20 18 21 18 95 -58 89 -91
91 -101 34 -224 -22 -48 -40 -98 -40 -112 0 -13 21 -62 48 -108 l47 -84 53 0
c28 0 52 3 52 6 0 4 -23 46 -51 95 -56 99 -56 92 -3 203 39 82 43 131 14 191
-25 52 -180 205 -208 205 -18 0 -19 3 -11 35 20 71 -22 153 -95 186 -50 23
-92 24 -131 3z m115 -104 c27 -27 25 -66 -6 -96 -29 -30 -67 -27 -96 8 -23 27
-23 49 3 82 25 32 70 35 99 6z"/>
<path d="M5125 6206 c-16 -8 -330 -315 -697 -683 -631 -632 -668 -671 -668
-704 0 -64 62 -104 116 -75 34 17 1337 1321 1353 1353 17 34 13 68 -11 90 -32
29 -58 34 -93 19z"/>
<path d="M6820 6213 c-35 -13 -60 -47 -60 -81 0 -33 41 -76 668 -704 367 -368
680 -676 696 -685 54 -28 116 12 116 76 0 33 -37 72 -667 704 -572 573 -710
703 -735 696 -2 0 -10 -3 -18 -6z"/>
<path d="M5970 3265 l0 -495 85 0 85 0 0 495 0 495 -85 0 -85 0 0 -495z"/>
<path d="M6380 3675 l0 -85 95 0 95 0 0 85 0 85 -95 0 -95 0 0 -85z"/>
<path d="M8150 3675 l0 -85 95 0 95 0 0 85 0 85 -95 0 -95 0 0 -85z"/>
<path d="M8570 3265 l0 -495 85 0 85 0 0 495 0 495 -85 0 -85 0 0 -495z"/>
<path d="M3021 3725 c-181 -51 -297 -190 -323 -388 -37 -275 95 -501 327 -562
146 -38 347 -1 441 81 l22 19 -30 64 c-27 58 -30 62 -46 48 -10 -9 -49 -31
-87 -49 -63 -30 -79 -33 -160 -33 -81 0 -95 3 -143 29 -101 56 -146 152 -146
316 -1 162 44 260 146 315 97 53 257 37 358 -36 23 -17 46 -27 50 -22 5 4 20
34 33 65 l26 57 -46 30 c-80 53 -147 73 -263 77 -74 3 -121 0 -159 -11z"/>
<path d="M7465 3726 c-157 -39 -245 -138 -245 -275 1 -144 67 -207 281 -266
217 -60 227 -64 253 -96 46 -54 26 -123 -47 -161 -36 -20 -56 -23 -147 -22
-112 1 -182 20 -263 71 -22 14 -41 23 -43 21 -12 -13 -53 -121 -49 -129 3 -5
25 -20 48 -33 156 -91 427 -101 563 -21 150 88 182 289 62 390 -49 42 -118 70
-266 109 -73 20 -146 43 -162 51 -86 45 -80 158 13 207 35 19 57 22 132 22 97
-1 158 -19 235 -70 22 -15 42 -25 44 -23 2 2 16 31 31 64 l26 60 -23 19 c-100
80 -300 117 -443 82z"/>
<path d="M1800 3250 l0 -480 90 0 90 0 2 218 3 217 220 -217 220 -218 102 0
c78 0 101 3 97 13 -3 6 -110 118 -239 247 l-234 235 232 233 232 232 -105 0
-105 1 -212 -218 -212 -218 -1 218 0 217 -90 0 -90 0 0 -480z"/>
<path d="M4130 3250 l0 -480 90 0 90 0 2 218 3 217 220 -217 220 -218 102 0
c78 0 101 3 97 13 -3 6 -110 118 -239 247 l-234 235 232 233 232 232 -105 0
-105 1 -212 -218 -212 -218 -1 218 0 217 -90 0 -90 0 0 -480z"/>
<path d="M10003 3643 l-73 -25 0 -84 0 -84 -65 0 c-51 0 -65 -3 -66 -15 0 -8
-1 -36 -2 -62 l-1 -48 67 -3 67 -3 0 -187 c0 -106 5 -204 11 -227 15 -52 82
-119 134 -134 49 -14 145 -14 179 -1 24 9 26 14 26 74 l0 65 -48 -6 c-58 -6
-108 15 -122 53 -6 14 -10 102 -10 195 l0 169 90 0 90 0 0 65 0 65 -90 0 -90
0 0 110 c0 82 -3 110 -12 109 -7 0 -46 -12 -85 -26z"/>
<path d="M5233 3444 c-137 -49 -224 -233 -194 -409 29 -166 125 -262 272 -273
87 -6 158 17 210 69 l39 39 0 -50 0 -51 83 3 82 3 1 338 1 337 -84 0 -83 0 0
-50 0 -50 -39 39 c-66 66 -189 90 -288 55z m241 -142 c50 -28 80 -100 80 -192
0 -103 -29 -165 -94 -198 -36 -18 -55 -22 -93 -18 -109 12 -157 77 -157 210 1
117 41 192 116 216 39 12 110 4 148 -18z"/>
<path d="M9143 3444 c-137 -49 -224 -233 -194 -409 29 -166 125 -262 272 -273
87 -6 158 17 210 69 l39 39 0 -50 0 -51 83 3 82 3 1 338 1 337 -84 0 -83 0 0
-50 0 -50 -39 39 c-66 66 -189 90 -288 55z m241 -142 c50 -28 80 -100 80 -192
0 -103 -29 -165 -94 -198 -36 -18 -55 -22 -93 -18 -109 12 -157 77 -157 210 1
117 41 192 116 216 39 12 110 4 148 -18z"/>
<path d="M6390 3110 l0 -340 85 0 85 0 0 340 0 340 -85 0 -85 0 0 -340z"/>
<path d="M8160 3110 l0 -340 85 0 85 0 0 340 0 340 -85 0 -85 0 0 -340z"/>
</g>
</svg>
